{"title":"Puli (2015) Tamil Desi Scr x264 AAC 700MB ZippyMovieZ ExCluSivE","uid":12515991,"size":723302894,"categoryP":"video","categoryS":"movies","magnet":"?xt=urn:btih:b311fe4c21fa606c5adefb473283e14b55f86da7&amp;dn=Puli+%282015%29+Tamil+Desi+Scr+x264+AAC+700MB+ZippyMovieZ+ExCluSivE&amp;tr=udp%3A%2F%2Ftracker.leechers-paradise.org%3A6969&amp;tr=udp%3A%2F%2Fzer0day.ch%3A1337&amp;tr=udp%3A%2F%2Fopen.demonii.com%3A1337&amp;tr=udp%3A%2F%2Ftracker.coppersurfer.tk%3A6969&amp;tr=udp%3A%2F%2Fexodus.desync.com%3A6969","seeders":0,"leechers":0,"uploader":"desi11","files":3,"time":1443770547,"description":"Screens\r\n\r\n \nhttps://www.picbee.pw/image/9y \nhttps://www.picbee.pw/image/9E \nhttps://www.picbee.pw/image/9N \nhttps://www.picbee.pw/image/9Z \nhttps://www.picbee.pw/image/9r\r\n\r\n\r\nINFO\r\n\r\n\r\nFormat                                   : MPEG-4\r\nFormat profile                           : Base Media / Version 2\r\nCodec ID                                 : mp42\r\nFile size                                : 687 MiB\r\nDuration                                 : 2h 28mn\r\nOverall bit rate mode                    : Variable\r\nOverall bit rate                         : 647 Kbps\r\nMovie name                               :\nEncoded date                             : UTC 2015-10-02 01:39:20\r\nTagged date                              : UTC 2015-10-02 01:39:20\r\ngsst                                     : 0\r\ngstd                                     : 8911470\r\ngssd                                     : B0AFCF389HM1443760421845149\r\ngshh                                     : r4---sn-25ge7n7s.googlevideo.com\r\n\r\nVideo\r\nID                                       : 1\r\nFormat                                   : AVC\r\nFormat/Info                              : Advanced Video Codec\r\nFormat profile                           :   \r\nFormat settings, CABAC                   : No\r\nFormat settings, ReFrames                : 1 frame\r\nCodec ID                                 : avc1\r\nCodec ID/Info                            : Advanced Video Coding\r\nDuration                                 : 2h 28mn\r\nBit rate                                 : 548 Kbps\r\nMaximum bit rate                         : 2 561 Kbps\r\nWidth                                    : 640 pixels\r\nHeight                                   : 360 pixels\r\nDisplay aspect ratio                     : 16:9\r\nFrame rate mode                          : Constant\r\nFrame rate                               : 29.970 fps\r\nColor space                              : YUV\r\nChroma subsampling                       : 4:2:0\r\nBit depth                                : 8 bits\r\nScan type                                : Progressive\r\nBits/(Pixel*Frame)                       : 0.079\r\nStream size                              : 582 MiB (85%)\r\nTagged date                              : UTC 2015-10-02 01:41:29\r\n\r\nAudio\r\nID                                       : 2\r\nFormat                                   : AAC\r\nFormat/Info                              : Advanced Audio Codec\r\nFormat profile                           : LC\r\nCodec ID                                 : 40\r\nDuration                                 : 2h 28mn\r\nBit rate mode                            : Variable\r\nBit rate                                 : 96.0 Kbps\r\nMaximum bit rate                         : 102 Kbps\r\nChannel(s)                               : 2 channels\r\nChannel positions                        : Front: L R\r\nSampling rate                            : 44.1 KHz\r\nCompression mode                         : Lossy\r\nStream size                              : 102 MiB (15%)\r\nTitle                                    : IsoMedia File Produced by Google, 5-11-2011\r\nEncoded date                             : UTC 2015-10-02 01:40:31\r\nTagged date                              : UTC 2015-10-02 01:41:29","torrent":{"xt":"urn:btih:b311fe4c21fa606c5adefb473283e14b55f86da7","amp;dn":"Puli+%282015%29+Tamil+Desi+Scr+x264+AAC+700MB+ZippyMovieZ+ExCluSivE","amp;tr":["udp%3A%2F%2Ftracker.leechers-paradise.org%3A6969","udp%3A%2F%2Fzer0day.ch%3A1337","udp%3A%2F%2Fopen.demonii.com%3A1337","udp%3A%2F%2Ftracker.coppersurfer.tk%3A6969","udp%3A%2F%2Fexodus.desync.com%3A6969"],"infoHash":"b311fe4c21fa606c5adefb473283e14b55f86da7","infoHashBuffer":{"type":"Buffer","data":[179,17,254,76,33,250,96,108,90,222,251,71,50,131,225,75,85,248,109,167]},"announce":[],"urlList":[]}}